<svg width="165" height="28" viewBox="0 0 165 28" fill="none" xmlns="http://www.w3.org/2000/svg">
<rect x="8.17567" y="0.922011" width="13.0814" height="22.8924" rx="1.63517" stroke="#0E2D52" stroke-width="1.09012"/>
<path d="M11.9907 1.46777H17.4413C17.4413 2.06983 16.9532 2.55789 16.3512 2.55789H13.0808C12.4788 2.55789 11.9907 2.06983 11.9907 1.46777Z" fill="#0E2D52"/>
<rect x="9.81079" y="3.64648" width="9.81104" height="4.36046" rx="0.545058" fill="#063676"/>
<rect x="9.81079" y="11.2788" width="4.36046" height="4.36046" rx="0.545058" fill="#67A2F1"/>
<rect x="9.81079" y="16.7285" width="9.81104" height="4.36046" rx="0.545058" fill="#67A2F1"/>
<path d="M9.81079 22.7247C9.81079 22.4237 10.0548 22.1797 10.3558 22.1797H19.0768C19.3778 22.1797 19.6218 22.4237 19.6218 22.7247V23.2698H9.81079V22.7247Z" fill="#67A2F1"/>
<rect x="15.2614" y="11.2788" width="4.36046" height="4.36046" rx="0.545058" fill="#063676"/>
<rect x="9.81079" y="9.09863" width="9.81104" height="1.09012" rx="0.545058" fill="#66A1F1"/>
<rect x="9.81079" y="9.09863" width="9.81104" height="1.09012" rx="0.545058" fill="#66A1F1"/>
<rect x="9.81079" y="9.09863" width="9.81104" height="1.09012" rx="0.545058" fill="#66A1F1"/>
<rect x="15.2614" y="9.09863" width="4.36046" height="1.09012" rx="0.545058" fill="#66A1F1"/>
<rect x="15.2614" y="9.09863" width="4.36046" height="1.09012" rx="0.545058" fill="#66A1F1"/>
<rect x="15.2614" y="9.09863" width="4.36046" height="1.09012" rx="0.545058" fill="#063676"/>
<path d="M9.92157 24.7899C10.7007 24.7899 11.3311 25.4273 11.3311 26.2065C11.3311 26.9856 10.7007 27.6231 9.92157 27.6231C9.14244 27.6231 8.50497 26.9856 8.50497 26.2065C8.50497 25.4273 9.14244 24.7899 9.92157 24.7899ZM14.1714 14.1653C14.1714 14.5549 13.8527 14.8736 13.4631 14.8736H12.7548L10.2049 20.2497L11.1611 21.9779C11.6782 22.927 10.9982 24.0816 9.92157 24.0816H2.13025C1.74068 24.0816 1.42195 23.7628 1.42195 23.3733C1.42195 22.9837 1.74068 22.665 2.13025 22.665H9.92157L9.14244 21.2484H3.86559C3.33436 21.2484 2.86688 20.958 2.62606 20.5188L0.0903397 15.9219C-0.171732 15.4544 0.168252 14.8736 0.706562 14.8736H11.1894L11.664 13.8608C11.7773 13.6129 12.0323 13.457 12.3015 13.457H13.4631C13.8527 13.457 14.1714 13.7758 14.1714 14.1653ZM2.83855 24.7899C3.61768 24.7899 4.24807 25.4273 4.24807 26.2065C4.24807 26.9856 3.61768 27.6231 2.83855 27.6231C2.05942 27.6231 1.42195 26.9856 1.42195 26.2065C1.42195 25.4273 2.05942 24.7899 2.83855 24.7899Z" fill="#063676"/>
<path d="M29.1572 18.96H30.0172C31.0039 18.96 31.7106 18.8333 32.1372 18.58C32.5639 18.3267 32.7772 17.92 32.7772 17.36C32.7772 16.8 32.5639 16.3933 32.1372 16.14C31.7106 15.8867 31.0039 15.76 30.0172 15.76H29.1572V18.96ZM29.1572 12.84H29.8772C31.1039 12.84 31.7172 12.3533 31.7172 11.38C31.7172 10.4067 31.1039 9.92 29.8772 9.92H29.1572V12.84ZM25.2372 6.92H31.0772C32.4639 6.92 33.5172 7.25333 34.2372 7.92C34.9572 8.58667 35.3172 9.54667 35.3172 10.8C35.3172 11.56 35.1772 12.1933 34.8972 12.7C34.6306 13.1933 34.2172 13.6133 33.6572 13.96C34.2172 14.0667 34.6906 14.2333 35.0772 14.46C35.4772 14.6733 35.7972 14.94 36.0372 15.26C36.2906 15.58 36.4706 15.94 36.5772 16.34C36.6839 16.74 36.7372 17.1667 36.7372 17.62C36.7372 18.3267 36.6106 18.9533 36.3572 19.5C36.1172 20.0467 35.7706 20.5067 35.3172 20.88C34.8772 21.2533 34.3372 21.5333 33.6972 21.72C33.0572 21.9067 32.3372 22 31.5372 22H25.2372V6.92ZM42.1401 11.74V22H38.5201V11.74H42.1401ZM38.2801 7.8C38.2801 7.52 38.3334 7.26 38.4401 7.02C38.5467 6.76667 38.6934 6.54667 38.8801 6.36C39.0667 6.17333 39.2801 6.02667 39.5201 5.92C39.7734 5.81333 40.0401 5.76 40.3201 5.76C40.6001 5.76 40.8601 5.81333 41.1001 5.92C41.3534 6.02667 41.5734 6.17333 41.7601 6.36C41.9467 6.54667 42.0934 6.76667 42.2001 7.02C42.3067 7.26 42.3601 7.52 42.3601 7.8C42.3601 8.08 42.3067 8.34667 42.2001 8.6C42.0934 8.84 41.9467 9.05333 41.7601 9.24C41.5734 9.42667 41.3534 9.57333 41.1001 9.68C40.8601 9.78667 40.6001 9.84 40.3201 9.84C40.0401 9.84 39.7734 9.78667 39.5201 9.68C39.2801 9.57333 39.0667 9.42667 38.8801 9.24C38.6934 9.05333 38.5467 8.84 38.4401 8.6C38.3334 8.34667 38.2801 8.08 38.2801 7.8ZM49.669 18.98H53.989V22H43.589L48.429 14.76H44.249V11.74H54.469L49.669 18.98ZM67.1415 11.96C66.2349 10.8533 65.1149 10.3 63.7815 10.3C63.1949 10.3 62.6482 10.4067 62.1415 10.62C61.6482 10.8333 61.2215 11.1267 60.8615 11.5C60.5015 11.86 60.2149 12.2933 60.0015 12.8C59.8015 13.3067 59.7015 13.8533 59.7015 14.44C59.7015 15.04 59.8015 15.5933 60.0015 16.1C60.2149 16.6067 60.5015 17.0467 60.8615 17.42C61.2349 17.7933 61.6682 18.0867 62.1615 18.3C62.6549 18.5133 63.1882 18.62 63.7615 18.62C65.0149 18.62 66.1415 18.0867 67.1415 17.02V21.66L66.7415 21.8C66.1415 22.0133 65.5815 22.1667 65.0615 22.26C64.5415 22.3667 64.0282 22.42 63.5215 22.42C62.4815 22.42 61.4815 22.2267 60.5215 21.84C59.5749 21.44 58.7349 20.8867 58.0015 20.18C57.2815 19.46 56.7015 18.6133 56.2615 17.64C55.8215 16.6533 55.6015 15.58 55.6015 14.42C55.6015 13.26 55.8149 12.2 56.2415 11.24C56.6815 10.2667 57.2615 9.43333 57.9815 8.74C58.7149 8.03333 59.5615 7.48667 60.5215 7.1C61.4815 6.7 62.4882 6.5 63.5415 6.5C64.1415 6.5 64.7282 6.56667 65.3015 6.7C65.8882 6.82 66.5015 7.01333 67.1415 7.28V11.96ZM72.4766 16.82C72.4766 17.1667 72.5366 17.4867 72.6566 17.78C72.7899 18.06 72.9566 18.3067 73.1566 18.52C73.3699 18.7333 73.6166 18.9 73.8966 19.02C74.1899 19.14 74.4966 19.2 74.8166 19.2C75.1366 19.2 75.4366 19.14 75.7166 19.02C76.0099 18.9 76.2566 18.7333 76.4566 18.52C76.6699 18.3067 76.8366 18.06 76.9566 17.78C77.0899 17.4867 77.1566 17.1733 77.1566 16.84C77.1566 16.52 77.0899 16.22 76.9566 15.94C76.8366 15.6467 76.6699 15.3933 76.4566 15.18C76.2566 14.9667 76.0099 14.8 75.7166 14.68C75.4366 14.56 75.1366 14.5 74.8166 14.5C74.4966 14.5 74.1899 14.56 73.8966 14.68C73.6166 14.8 73.3699 14.9667 73.1566 15.18C72.9566 15.3933 72.7899 15.64 72.6566 15.92C72.5366 16.2 72.4766 16.5 72.4766 16.82ZM68.6566 16.78C68.6566 16.02 68.8099 15.3133 69.1166 14.66C69.4232 13.9933 69.8499 13.42 70.3966 12.94C70.9432 12.4467 71.5899 12.06 72.3366 11.78C73.0966 11.5 73.9232 11.36 74.8166 11.36C75.6966 11.36 76.5099 11.5 77.2566 11.78C78.0166 12.0467 78.6699 12.4267 79.2166 12.92C79.7766 13.4 80.2099 13.98 80.5166 14.66C80.8232 15.3267 80.9766 16.0667 80.9766 16.88C80.9766 17.6933 80.8166 18.44 80.4966 19.12C80.1899 19.7867 79.7632 20.3667 79.2166 20.86C78.6699 21.34 78.0099 21.7133 77.2366 21.98C76.4766 22.2467 75.6499 22.38 74.7566 22.38C73.8766 22.38 73.0632 22.2467 72.3166 21.98C71.5699 21.7133 70.9232 21.3333 70.3766 20.84C69.8432 20.3467 69.4232 19.76 69.1166 19.08C68.8099 18.3867 68.6566 17.62 68.6566 16.78ZM82.8357 11.74H86.4557V13.04C86.949 12.44 87.449 12.04 87.9557 11.84C88.4623 11.6267 89.0557 11.52 89.7357 11.52C90.4557 11.52 91.069 11.64 91.5757 11.88C92.0957 12.1067 92.5357 12.4333 92.8957 12.86C93.189 13.2067 93.389 13.5933 93.4957 14.02C93.6023 14.4467 93.6557 14.9333 93.6557 15.48V22H90.0357V16.82C90.0357 16.3133 89.9957 15.9067 89.9157 15.6C89.849 15.28 89.7223 15.0267 89.5357 14.84C89.3757 14.68 89.1957 14.5667 88.9957 14.5C88.7957 14.4333 88.5823 14.4 88.3557 14.4C87.7423 14.4 87.269 14.5867 86.9357 14.96C86.6157 15.32 86.4557 15.84 86.4557 16.52V22H82.8357V11.74ZM95.8921 11.74H99.5121V13.04C100.005 12.44 100.505 12.04 101.012 11.84C101.519 11.6267 102.112 11.52 102.792 11.52C103.512 11.52 104.125 11.64 104.632 11.88C105.152 12.1067 105.592 12.4333 105.952 12.86C106.245 13.2067 106.445 13.5933 106.552 14.02C106.659 14.4467 106.712 14.9333 106.712 15.48V22H103.092V16.82C103.092 16.3133 103.052 15.9067 102.972 15.6C102.905 15.28 102.779 15.0267 102.592 14.84C102.432 14.68 102.252 14.5667 102.052 14.5C101.852 14.4333 101.639 14.4 101.412 14.4C100.799 14.4 100.325 14.5867 99.9921 14.96C99.6721 15.32 99.5121 15.84 99.5121 16.52V22H95.8921V11.74ZM116.449 15.38C116.329 14.8733 116.082 14.4667 115.709 14.16C115.335 13.8533 114.882 13.7 114.349 13.7C113.789 13.7 113.329 13.8467 112.969 14.14C112.622 14.4333 112.402 14.8467 112.309 15.38H116.449ZM112.209 17.48C112.209 19.04 112.942 19.82 114.409 19.82C115.195 19.82 115.789 19.5 116.189 18.86H119.689C118.982 21.2067 117.215 22.38 114.389 22.38C113.522 22.38 112.729 22.2533 112.009 22C111.289 21.7333 110.669 21.36 110.149 20.88C109.642 20.4 109.249 19.8267 108.969 19.16C108.689 18.4933 108.549 17.7467 108.549 16.92C108.549 16.0667 108.682 15.3 108.949 14.62C109.215 13.9267 109.595 13.34 110.089 12.86C110.582 12.38 111.175 12.0133 111.869 11.76C112.575 11.4933 113.369 11.36 114.249 11.36C115.115 11.36 115.895 11.4933 116.589 11.76C117.282 12.0133 117.869 12.3867 118.349 12.88C118.829 13.3733 119.195 13.98 119.449 14.7C119.702 15.4067 119.829 16.2067 119.829 17.1V17.48H112.209ZM129.413 15.06C128.786 14.6333 128.153 14.42 127.513 14.42C127.166 14.42 126.84 14.48 126.533 14.6C126.24 14.72 125.98 14.8933 125.753 15.12C125.526 15.3333 125.346 15.5933 125.213 15.9C125.093 16.1933 125.033 16.5267 125.033 16.9C125.033 17.26 125.093 17.5933 125.213 17.9C125.346 18.1933 125.52 18.4533 125.733 18.68C125.96 18.8933 126.226 19.06 126.533 19.18C126.84 19.3 127.166 19.36 127.513 19.36C128.193 19.36 128.826 19.1267 129.413 18.66V21.74C128.52 22.1267 127.673 22.32 126.873 22.32C126.126 22.32 125.413 22.1933 124.733 21.94C124.066 21.6867 123.473 21.3267 122.953 20.86C122.446 20.38 122.04 19.8133 121.733 19.16C121.426 18.4933 121.273 17.7533 121.273 16.94C121.273 16.1267 121.42 15.3867 121.713 14.72C122.006 14.04 122.406 13.46 122.913 12.98C123.42 12.4867 124.02 12.1067 124.713 11.84C125.42 11.56 126.173 11.42 126.973 11.42C127.853 11.42 128.666 11.6067 129.413 11.98V15.06ZM135.293 14.76V22H131.673V14.76H130.473V11.74H131.673V8.66H135.293V11.74H137.353V14.76H135.293ZM149.949 22H137.809L141.549 18.12C142.536 17.0933 143.309 16.2267 143.869 15.52C144.429 14.8 144.842 14.1933 145.109 13.7C145.389 13.2067 145.562 12.8067 145.629 12.5C145.696 12.1933 145.729 11.9333 145.729 11.72C145.729 11.4933 145.689 11.2733 145.609 11.06C145.542 10.8467 145.436 10.66 145.289 10.5C145.142 10.3267 144.962 10.1933 144.749 10.1C144.549 9.99333 144.309 9.94 144.029 9.94C143.496 9.94 143.076 10.1133 142.769 10.46C142.476 10.8067 142.329 11.24 142.329 11.76C142.329 11.9067 142.349 12.12 142.389 12.4H138.109C138.109 11.52 138.249 10.72 138.529 10C138.822 9.28 139.229 8.66 139.749 8.14C140.269 7.62 140.882 7.22 141.589 6.94C142.309 6.66 143.096 6.52 143.949 6.52C144.789 6.52 145.562 6.65333 146.269 6.92C146.989 7.18667 147.609 7.56 148.129 8.04C148.649 8.52 149.056 9.09333 149.349 9.76C149.642 10.4133 149.789 11.1267 149.789 11.9C149.789 12.7267 149.609 13.4933 149.249 14.2C148.902 14.8933 148.342 15.6067 147.569 16.34L145.069 18.68H149.949V22ZM158.51 15.9V9.96L155.05 15.9H158.51ZM162.15 15.9H163.97V18.9H162.15V22H158.51V18.9H151.23V16.38L156.99 6.92H162.15V15.9Z" fill="#0E2D52"/>
</svg>
