<svg width="22" height="28" viewBox="0 0 22 28" fill="none" xmlns="http://www.w3.org/2000/svg">
<rect x="8.17543" y="0.922011" width="13.0814" height="22.8924" rx="1.63517" stroke="#0E2D52" stroke-width="1.09012"/>
<path d="M11.9902 1.46777H17.4408C17.4408 2.06983 16.9528 2.55789 16.3507 2.55789H13.0804C12.4783 2.55789 11.9902 2.06983 11.9902 1.46777Z" fill="#0E2D52"/>
<rect x="9.81055" y="3.64648" width="9.81104" height="4.36046" rx="0.545058" fill="#063676"/>
<rect x="9.81055" y="11.2793" width="4.36046" height="4.36046" rx="0.545058" fill="#67A2F1"/>
<rect x="9.81055" y="16.7285" width="9.81104" height="4.36046" rx="0.545058" fill="#67A2F1"/>
<path d="M9.81055 22.7247C9.81055 22.4237 10.0546 22.1797 10.3556 22.1797H19.0765C19.3776 22.1797 19.6216 22.4237 19.6216 22.7247V23.2698H9.81055V22.7247Z" fill="#67A2F1"/>
<rect x="15.2612" y="11.2793" width="4.36046" height="4.36046" rx="0.545058" fill="#063676"/>
<rect x="9.81055" y="9.09863" width="9.81104" height="1.09012" rx="0.545058" fill="#66A1F1"/>
<rect x="9.81055" y="9.09863" width="9.81104" height="1.09012" rx="0.545058" fill="#66A1F1"/>
<rect x="9.81055" y="9.09863" width="9.81104" height="1.09012" rx="0.545058" fill="#66A1F1"/>
<rect x="15.2612" y="9.09863" width="4.36046" height="1.09012" rx="0.545058" fill="#66A1F1"/>
<rect x="15.2612" y="9.09863" width="4.36046" height="1.09012" rx="0.545058" fill="#66A1F1"/>
<rect x="15.2612" y="9.09863" width="4.36046" height="1.09012" rx="0.545058" fill="#063676"/>
<path d="M9.92157 24.7899C10.7007 24.7899 11.3311 25.4273 11.3311 26.2065C11.3311 26.9856 10.7007 27.6231 9.92157 27.6231C9.14244 27.6231 8.50497 26.9856 8.50497 26.2065C8.50497 25.4273 9.14244 24.7899 9.92157 24.7899ZM14.1714 14.1653C14.1714 14.5549 13.8527 14.8736 13.4631 14.8736H12.7548L10.2049 20.2497L11.1611 21.9779C11.6782 22.927 10.9982 24.0816 9.92157 24.0816H2.13025C1.74068 24.0816 1.42195 23.7628 1.42195 23.3733C1.42195 22.9837 1.74068 22.665 2.13025 22.665H9.92157L9.14244 21.2484H3.86559C3.33436 21.2484 2.86688 20.958 2.62606 20.5188L0.0903397 15.9219C-0.171732 15.4544 0.168252 14.8736 0.706562 14.8736H11.1894L11.664 13.8608C11.7773 13.6129 12.0323 13.457 12.3015 13.457H13.4631C13.8527 13.457 14.1714 13.7758 14.1714 14.1653ZM2.83855 24.7899C3.61768 24.7899 4.24807 25.4273 4.24807 26.2065C4.24807 26.9856 3.61768 27.6231 2.83855 27.6231C2.05942 27.6231 1.42195 26.9856 1.42195 26.2065C1.42195 25.4273 2.05942 24.7899 2.83855 24.7899Z" fill="#063676"/>
</svg>
