<svg width="358" height="338" viewBox="0 0 358 338" fill="none" xmlns="http://www.w3.org/2000/svg">
<path d="M292.081 -4.34995C264.9 -16.7323 234.658 -20.7794 205.177 -15.9797C175.696 -11.1801 148.299 2.25091 126.449 22.6159C104.599 42.9809 89.2761 69.3659 82.4166 98.4366C75.5571 127.507 77.469 157.959 87.9107 185.944C89.6609 190.637 89.4749 195.834 87.3936 200.391C85.3122 204.947 81.506 208.49 76.8123 210.241C72.1186 211.991 66.9218 211.805 62.3653 209.723C57.8087 207.642 54.2655 203.836 52.5153 199.142C43.8303 175.939 39.8092 151.251 40.6824 126.491C41.5556 101.731 47.3059 77.3875 57.6038 54.8541C100.837 -40.0609 212.822 -81.9544 307.737 -38.7208C402.652 4.51283 444.546 116.497 401.312 211.412C391.07 233.972 376.478 254.288 358.371 271.198C340.264 288.107 318.998 301.278 295.792 309.954C291.102 311.714 285.905 311.539 281.344 309.468C276.783 307.396 273.232 303.597 271.471 298.907C269.711 294.217 269.886 289.02 271.958 284.459C274.03 279.898 277.828 276.347 282.518 274.587C310.485 264.097 334.714 245.553 352.145 221.297C369.575 197.042 379.425 168.163 380.448 138.312C381.472 108.46 373.623 78.9754 357.895 53.583C342.166 28.1906 319.264 8.0304 292.081 -4.34995Z" fill="url(#paint0_linear_2456_12158)" fill-opacity="0.2"/>
<path d="M245.115 98.7609C235.999 94.6088 225.607 94.2478 216.226 97.7576C206.844 101.267 199.24 108.36 195.088 117.476C190.936 126.592 190.575 136.983 194.085 146.365C197.595 155.747 204.688 163.35 213.803 167.503C222.919 171.655 233.311 172.016 242.693 168.506C252.074 164.996 259.678 157.903 263.83 148.788C267.982 139.672 268.343 129.28 264.833 119.898C261.324 110.516 254.231 102.913 245.115 98.7609Z" fill="url(#paint1_linear_2456_12158)" fill-opacity="0.2"/>
<path d="M160.717 101.817C165.864 90.5107 173.721 80.648 183.591 73.1032C193.46 65.5584 205.039 60.5643 217.3 58.5636C229.561 56.5628 242.126 57.6171 253.883 61.6329C265.639 65.6488 276.223 72.5023 284.698 81.5862C293.173 90.6702 299.276 101.704 302.467 113.711C305.659 125.717 305.839 138.325 302.993 150.418C300.148 162.511 294.363 173.715 286.152 183.039C277.941 192.362 267.558 199.516 255.921 203.867C253.597 204.736 251.467 206.055 249.653 207.747C247.839 209.44 246.375 211.473 245.347 213.731C244.318 215.99 243.745 218.428 243.658 220.908C243.572 223.388 243.975 225.86 244.845 228.184C246.601 232.878 250.149 236.681 254.71 238.759C256.968 239.787 259.406 240.361 261.886 240.447C264.366 240.533 266.838 240.13 269.162 239.261C290.152 231.409 308.342 217.51 321.432 199.32C334.522 181.131 341.924 159.468 342.702 137.072C343.481 114.675 337.6 92.5508 325.804 73.4965C314.008 54.4423 296.827 39.3138 276.433 30.0244C256.039 20.735 233.348 17.7018 211.23 21.3084C189.112 24.915 168.561 34.9994 152.174 50.2864C135.788 65.5734 124.302 85.3762 119.171 107.191C114.039 129.005 115.491 151.852 123.344 172.841C124.214 175.164 125.533 177.292 127.226 179.106C128.918 180.919 130.951 182.381 133.209 183.408C135.467 184.436 137.905 185.008 140.383 185.093C142.862 185.179 145.334 184.775 147.657 183.905C149.98 183.035 152.108 181.716 153.922 180.023C155.735 178.331 157.197 176.298 158.224 174.04C159.251 171.782 159.824 169.344 159.909 166.865C159.995 164.386 159.591 161.915 158.721 159.592C155.228 150.306 153.606 140.421 153.948 130.505C154.291 120.59 156.591 110.84 160.717 101.817Z" fill="url(#paint2_linear_2456_12158)" fill-opacity="0.2"/>
<defs>
<linearGradient id="paint0_linear_2456_12158" x1="307.737" y1="-38.7208" x2="171.855" y2="259.596" gradientUnits="userSpaceOnUse">
<stop stop-color="white"/>
<stop offset="1" stop-color="white" stop-opacity="0"/>
</linearGradient>
<linearGradient id="paint1_linear_2456_12158" x1="245.115" y1="98.7609" x2="213.803" y2="167.503" gradientUnits="userSpaceOnUse">
<stop stop-color="white"/>
<stop offset="1" stop-color="white" stop-opacity="0"/>
</linearGradient>
<linearGradient id="paint2_linear_2456_12158" x1="276.433" y1="30.0244" x2="193.959" y2="211.087" gradientUnits="userSpaceOnUse">
<stop stop-color="white"/>
<stop offset="1" stop-color="white" stop-opacity="0"/>
</linearGradient>
</defs>
</svg>
