<svg width="284" height="293" viewBox="0 0 284 293" fill="none" xmlns="http://www.w3.org/2000/svg">
<path d="M-61.871 308.561C-46.9375 334.429 -24.671 355.29 2.11452 368.507C28.9001 381.724 59.0025 386.705 88.6177 382.819C118.233 378.934 146.032 366.357 168.501 346.677C190.971 326.998 207.103 301.1 214.858 272.255C216.16 267.418 219.33 263.295 223.671 260.795C228.012 258.295 233.168 257.622 238.005 258.924C242.843 260.225 246.965 263.395 249.465 267.736C251.965 272.077 252.638 277.233 251.337 282.071C244.929 306.003 233.862 328.435 218.769 348.082C203.676 367.73 184.855 384.206 163.384 396.566C73.0596 448.715 -42.4307 417.77 -94.5795 327.445C-146.728 237.121 -115.783 121.631 -25.4584 69.4818C-4.0181 57.0676 19.6611 49.006 44.2225 45.7591C68.7838 42.5122 93.7445 44.1438 117.674 50.5604C122.514 51.8517 126.643 55.013 129.152 59.3486C131.662 63.6843 132.346 68.8391 131.055 73.6792C129.763 78.5194 126.602 82.6482 122.266 85.1575C117.931 87.6669 112.776 88.3511 107.936 87.0596C79.0777 79.3537 48.5832 80.3751 20.3055 89.9946C-7.97207 99.6141 -32.7636 117.4 -50.9361 141.105C-69.1086 164.81 -79.8465 193.37 -81.7928 223.175C-83.7391 252.981 -76.8065 282.694 -61.871 308.561Z" fill="url(#paint0_linear_2456_12162)" fill-opacity="0.2"/>
<path d="M36.2525 251.909C41.2609 260.584 49.5102 266.913 59.1857 269.506C68.8612 272.099 79.1704 270.741 87.8452 265.733C96.52 260.725 102.85 252.475 105.442 242.8C108.035 233.124 106.678 222.815 101.669 214.14C96.661 205.465 88.4116 199.135 78.7361 196.543C69.0606 193.95 58.7515 195.308 50.0767 200.316C41.4019 205.324 35.0719 213.574 32.4794 223.249C29.8869 232.925 31.2441 243.234 36.2525 251.909Z" fill="url(#paint1_linear_2456_12162)" fill-opacity="0.2"/>
<path d="M106.729 298.444C95.971 304.658 83.8469 308.123 71.4303 308.531C59.0138 308.94 46.6881 306.28 35.5453 300.786C24.4025 295.293 14.7866 287.136 7.54956 277.039C0.312491 266.941 -4.32233 255.214 -5.94428 242.897C-7.56622 230.58 -6.12525 218.053 -1.74898 206.426C2.62729 194.799 9.80373 184.431 19.1445 176.241C28.4854 168.05 39.7022 162.29 51.8012 159.47C63.9003 156.65 76.5081 156.858 88.5075 160.075C90.9043 160.717 93.404 160.881 95.8641 160.557C98.3242 160.233 100.696 159.428 102.845 158.188C104.994 156.947 106.878 155.295 108.388 153.327C109.899 151.358 111.007 149.111 111.649 146.715C112.946 141.874 112.267 136.717 109.761 132.377C108.521 130.228 106.869 128.345 104.9 126.834C102.932 125.324 100.685 124.216 98.2882 123.573C76.6419 117.773 53.7617 118.521 32.5408 125.724C11.3199 132.927 -7.2885 146.261 -20.9311 164.04C-34.5738 181.818 -42.6379 203.244 -44.1038 225.606C-45.5697 247.968 -40.3714 270.262 -29.1664 289.67C-17.9614 309.077 -1.25292 324.726 18.8461 334.638C38.9451 344.55 61.5319 348.278 83.7502 345.353C105.968 342.427 126.82 332.979 143.669 318.203C160.517 303.426 172.605 283.986 178.405 262.339C179.046 259.943 179.209 257.444 178.884 254.985C178.559 252.526 177.754 250.155 176.513 248.007C175.272 245.859 173.62 243.977 171.651 242.468C169.683 240.959 167.437 239.852 165.041 239.211C162.644 238.57 160.145 238.407 157.686 238.731C155.227 239.056 152.856 239.862 150.709 241.103C148.561 242.344 146.679 243.995 145.169 245.964C143.66 247.932 142.553 250.179 141.912 252.575C139.362 262.163 134.94 271.151 128.902 279.024C122.864 286.896 115.328 293.496 106.729 298.444Z" fill="url(#paint2_linear_2456_12162)" fill-opacity="0.2"/>
<defs>
<linearGradient id="paint0_linear_2456_12162" x1="-94.5795" y1="327.445" x2="189.309" y2="163.542" gradientUnits="userSpaceOnUse">
<stop stop-color="white"/>
<stop offset="1" stop-color="white" stop-opacity="0"/>
</linearGradient>
<linearGradient id="paint1_linear_2456_12162" x1="36.2525" y1="251.909" x2="101.669" y2="214.14" gradientUnits="userSpaceOnUse">
<stop stop-color="white"/>
<stop offset="1" stop-color="white" stop-opacity="0"/>
</linearGradient>
<linearGradient id="paint2_linear_2456_12162" x1="-29.1664" y1="289.67" x2="143.139" y2="190.189" gradientUnits="userSpaceOnUse">
<stop stop-color="white"/>
<stop offset="1" stop-color="white" stop-opacity="0"/>
</linearGradient>
</defs>
</svg>
