<svg width="393" height="497" viewBox="0 0 393 497" fill="none" xmlns="http://www.w3.org/2000/svg">
<g clip-path="url(#clip0_71_9348)">
<rect width="393" height="497" fill="#0E2D52"/>
<path d="M359.382 -2.57327C341.665 -10.6442 321.953 -13.2822 302.737 -10.1537C283.521 -7.02521 265.663 1.72926 251.421 15.0034C237.179 28.2776 227.191 45.4757 222.72 64.4243C218.249 83.373 219.495 103.222 226.301 121.462C227.442 124.522 227.321 127.909 225.964 130.879C224.607 133.849 222.126 136.159 219.067 137.3C216.008 138.44 212.62 138.319 209.65 136.962C206.68 135.606 204.371 133.125 203.23 130.065C197.569 114.942 194.948 98.8492 195.517 82.7106C196.086 66.572 199.834 50.7042 206.547 36.0167C234.727 -25.8501 307.72 -53.1568 369.587 -24.9766C431.453 3.2036 458.76 76.1966 430.58 138.063C423.904 152.768 414.393 166.01 402.59 177.032C390.788 188.054 376.927 196.639 361.801 202.294C358.744 203.441 355.356 203.327 352.383 201.977C349.41 200.627 347.096 198.151 345.948 195.094C344.801 192.037 344.915 188.649 346.265 185.676C347.616 182.703 350.092 180.389 353.149 179.241C371.378 172.404 387.171 160.317 398.532 144.506C409.894 128.696 416.314 109.873 416.981 90.4156C417.648 70.958 412.532 51.7393 402.28 35.1882C392.028 18.6371 377.1 5.4964 359.382 -2.57327Z" fill="url(#paint0_linear_71_9348)" fill-opacity="0.2"/>
<path d="M328.769 64.6353C322.827 61.9289 316.054 61.6936 309.939 63.9813C303.824 66.269 298.868 70.8923 296.161 76.834C293.455 82.7757 293.219 89.5492 295.507 95.6644C297.795 101.78 302.418 106.736 308.36 109.442C314.302 112.148 321.075 112.384 327.19 110.096C333.305 107.808 338.261 103.185 340.968 97.2433C343.674 91.3016 343.91 84.5281 341.622 78.4129C339.334 72.2977 334.711 67.3418 328.769 64.6353Z" fill="url(#paint1_linear_71_9348)" fill-opacity="0.2"/>
<path d="M273.757 66.6274C277.112 59.2575 282.233 52.8289 288.666 47.9111C295.1 42.9933 302.647 39.7381 310.638 38.434C318.63 37.1299 326.821 37.817 334.484 40.4346C342.147 43.0522 349.046 47.5194 354.569 53.4405C360.093 59.3615 364.072 66.5536 366.152 74.3795C368.232 82.2054 368.35 90.4236 366.495 98.3059C364.64 106.188 360.869 113.491 355.517 119.568C350.165 125.645 343.397 130.308 335.812 133.145C334.298 133.711 332.909 134.571 331.727 135.674C330.544 136.777 329.59 138.103 328.92 139.574C328.249 141.046 327.875 142.636 327.819 144.252C327.763 145.868 328.026 147.48 328.593 148.995C329.737 152.054 332.05 154.533 335.023 155.887C336.494 156.558 338.084 156.932 339.7 156.988C341.317 157.044 342.928 156.781 344.443 156.215C358.124 151.097 369.981 142.037 378.513 130.181C387.045 118.325 391.87 104.205 392.377 89.6065C392.885 75.0082 389.052 60.5873 381.363 48.1675C373.674 35.7477 362.475 25.8868 349.182 19.8318C335.889 13.7768 321.099 11.7998 306.682 14.1506C292.265 16.5014 278.87 23.0746 268.189 33.0388C257.508 43.0031 250.021 55.9108 246.677 70.1298C243.332 84.3488 244.278 99.2404 249.397 112.921C249.964 114.435 250.824 115.823 251.927 117.005C253.03 118.187 254.355 119.14 255.827 119.809C257.299 120.479 258.888 120.852 260.503 120.908C262.119 120.963 263.73 120.7 265.244 120.133C266.758 119.566 268.146 118.706 269.328 117.603C270.51 116.5 271.462 115.174 272.132 113.703C272.802 112.231 273.175 110.642 273.231 109.026C273.286 107.411 273.023 105.8 272.456 104.286C270.179 98.2329 269.122 91.7896 269.345 85.3266C269.568 78.8636 271.068 72.5086 273.757 66.6274Z" fill="url(#paint2_linear_71_9348)" fill-opacity="0.2"/>
</g>
<defs>
<linearGradient id="paint0_linear_71_9348" x1="369.587" y1="-24.9766" x2="281.017" y2="169.47" gradientUnits="userSpaceOnUse">
<stop stop-color="white"/>
<stop offset="1" stop-color="white" stop-opacity="0"/>
</linearGradient>
<linearGradient id="paint1_linear_71_9348" x1="328.769" y1="64.6353" x2="308.36" y2="109.442" gradientUnits="userSpaceOnUse">
<stop stop-color="white"/>
<stop offset="1" stop-color="white" stop-opacity="0"/>
</linearGradient>
<linearGradient id="paint2_linear_71_9348" x1="349.182" y1="19.8318" x2="295.425" y2="137.851" gradientUnits="userSpaceOnUse">
<stop stop-color="white"/>
<stop offset="1" stop-color="white" stop-opacity="0"/>
</linearGradient>
<clipPath id="clip0_71_9348">
<rect width="393" height="497" fill="white"/>
</clipPath>
</defs>
</svg>
