<svg width="46" height="45" viewBox="0 0 46 45" fill="none" xmlns="http://www.w3.org/2000/svg">
<circle cx="23" cy="22.5" r="22.5" fill="#E7F2FF"/>
<path d="M32.2648 21.1768H24.3236V13.2356C24.3236 12.8846 24.1842 12.548 23.936 12.2998C23.6878 12.0516 23.3511 11.9121 23.0001 11.9121C22.6491 11.9121 22.3124 12.0516 22.0642 12.2998C21.816 12.548 21.6766 12.8846 21.6766 13.2356V21.1768H13.7354C13.3844 21.1768 13.0477 21.3163 12.7995 21.5645C12.5513 21.8127 12.4119 22.1493 12.4119 22.5003C12.4119 22.8514 12.5513 23.188 12.7995 23.4362C13.0477 23.6844 13.3844 23.8239 13.7354 23.8239H21.6766V31.765C21.6766 32.1161 21.816 32.4527 22.0642 32.7009C22.3124 32.9491 22.6491 33.0886 23.0001 33.0886C23.3511 33.0886 23.6878 32.9491 23.936 32.7009C24.1842 32.4527 24.3236 32.1161 24.3236 31.765V23.8239H32.2648C32.6158 23.8239 32.9525 23.6844 33.2007 23.4362C33.4489 23.188 33.5883 22.8514 33.5883 22.5003C33.5883 22.1493 33.4489 21.8127 33.2007 21.5645C32.9525 21.3163 32.6158 21.1768 32.2648 21.1768Z" fill="#0E2D52"/>
</svg>
