<svg width="45" height="46" viewBox="0 0 45 46" fill="none" xmlns="http://www.w3.org/2000/svg">
<path d="M12 8C12 8.19891 12.079 8.38968 12.2197 8.53033C12.3603 8.67098 12.5511 8.75 12.75 8.75H32.25C32.4489 8.75 32.6397 8.67098 32.7803 8.53033C32.921 8.38968 33 8.19891 33 8C33 7.80109 32.921 7.61032 32.7803 7.46967C32.6397 7.32902 32.4489 7.25 32.25 7.25H12.75C12.5511 7.25 12.3603 7.32902 12.2197 7.46967C12.079 7.61032 12 7.80109 12 8ZM32.25 20.75H12.75C12.5511 20.75 12.3603 20.829 12.2197 20.9697C12.079 21.1103 12 21.3011 12 21.5C12 21.6989 12.079 21.8897 12.2197 22.0303C12.3603 22.171 12.5511 22.25 12.75 22.25H32.25C32.4489 22.25 32.6397 22.171 32.7803 22.0303C32.921 21.8897 33 21.6989 33 21.5C33 21.3011 32.921 21.1103 32.7803 20.9697C32.6397 20.829 32.4489 20.75 32.25 20.75ZM32.25 11.75H12.75C12.5511 11.75 12.3603 11.829 12.2197 11.9697C12.079 12.1103 12 12.3011 12 12.5C12 12.6989 12.079 12.8897 12.2197 13.0303C12.3603 13.171 12.5511 13.25 12.75 13.25H32.25C32.4489 13.25 32.6397 13.171 32.7803 13.0303C32.921 12.8897 33 12.6989 33 12.5C33 12.3011 32.921 12.1103 32.7803 11.9697C32.6397 11.829 32.4489 11.75 32.25 11.75ZM32.25 16.25H12.75C12.5511 16.25 12.3603 16.329 12.2197 16.4697C12.079 16.6103 12 16.8011 12 17C12 17.1989 12.079 17.3897 12.2197 17.5303C12.3603 17.671 12.5511 17.75 12.75 17.75H32.25C32.4489 17.75 32.6397 17.671 32.7803 17.5303C32.921 17.3897 33 17.1989 33 17C33 16.8011 32.921 16.6103 32.7803 16.4697C32.6397 16.329 32.4489 16.25 32.25 16.25Z" fill="#0E2D52"/>
<path d="M42.3 15.3725L38.25 12.725V2.75C38.25 2.15326 38.013 1.58097 37.591 1.15901C37.169 0.737053 36.5967 0.5 36 0.5H25.5C25.3011 0.5 25.1103 0.579018 24.9697 0.71967C24.829 0.860322 24.75 1.05109 24.75 1.25C24.75 1.44891 24.829 1.63968 24.9697 1.78033C25.1103 1.92098 25.3011 2 25.5 2H36C36.1989 2 36.3897 2.07902 36.5303 2.21967C36.671 2.36032 36.75 2.55109 36.75 2.75V23.1575L29.0475 30.02L26.835 28.13C25.6391 27.0713 24.0972 26.4869 22.5 26.4869C20.9028 26.4869 19.3609 27.0713 18.165 28.13L15.99 30.05L8.25001 23.1575V2.75C8.25001 2.55109 8.32903 2.36032 8.46968 2.21967C8.61033 2.07902 8.8011 2 9.00001 2H19.5C19.6989 2 19.8897 1.92098 20.0303 1.78033C20.171 1.63968 20.25 1.44891 20.25 1.25C20.25 1.05109 20.171 0.860322 20.0303 0.71967C19.8897 0.579018 19.6989 0.5 19.5 0.5H9.00001C8.40327 0.5 7.83098 0.737053 7.40902 1.15901C6.98706 1.58097 6.75001 2.15326 6.75001 2.75V12.725L2.65501 15.41C1.828 16.0411 1.15806 16.8549 0.697498 17.7877C0.236941 18.7205 -0.00176829 19.7472 9.86162e-06 20.7875V38.75C0.0118835 40.543 0.731993 42.2587 2.0034 43.5231C3.2748 44.7875 4.99443 45.4981 6.78751 45.5H38.25C40.0366 45.4882 41.7466 44.7733 43.0099 43.5099C44.2733 42.2466 44.9882 40.5366 45 38.75V20.7875C45.0023 19.7371 44.7595 18.7006 44.2907 17.7605C43.822 16.8205 43.1404 16.0028 42.3 15.3725ZM38.25 14.5175L41.43 16.595C41.9064 16.9605 42.3172 17.4044 42.645 17.9075L38.25 21.8225V14.5175ZM3.52501 16.6325L6.75001 14.5175V21.8225L2.34751 17.9075C2.66285 17.4172 3.06132 16.9858 3.52501 16.6325ZM1.50001 38.75V20.7875C1.50143 20.2975 1.57213 19.8102 1.71001 19.34L6.96001 24.0275L14.85 31.0475L2.58001 41.9C1.88773 40.995 1.50865 39.8894 1.50001 38.75ZM6.78751 44C5.65755 43.9989 4.55809 43.6333 3.65251 42.9575L19.155 29.255C20.0791 28.4378 21.2701 27.9867 22.5038 27.9867C23.7374 27.9867 24.9284 28.4378 25.8525 29.255L41.6025 42.755C40.6651 43.5496 39.4788 43.9901 38.25 44H6.78751ZM43.5375 38.75C43.5383 39.7853 43.233 40.7977 42.66 41.66L30.195 31.0025L38.0325 24.0275L43.2825 19.34C43.4229 19.8098 43.4962 20.2972 43.5 20.7875L43.5375 38.75Z" fill="#0E2D52"/>
<path d="M22.5 2C22.9142 2 23.25 1.66421 23.25 1.25C23.25 0.835786 22.9142 0.5 22.5 0.5C22.0858 0.5 21.75 0.835786 21.75 1.25C21.75 1.66421 22.0858 2 22.5 2Z" fill="#0E2D52"/>
</svg>
