<svg width="34" height="34" viewBox="0 0 34 34" fill="none" xmlns="http://www.w3.org/2000/svg"><path d="M16.9999 0.333313C7.80992 0.333313 0.333252 7.80998 0.333252 17V23.905C0.333252 25.6116 1.82825 27 3.66659 27H5.33325C5.77528 27 6.1992 26.8244 6.51176 26.5118C6.82432 26.1993 6.99992 25.7753 6.99992 25.3333V16.7616C6.99992 16.3196 6.82432 15.8957 6.51176 15.5831C6.1992 15.2706 5.77528 15.095 5.33325 15.095H3.81992C4.74659 8.64498 10.2966 3.66665 16.9999 3.66665C23.7033 3.66665 29.2533 8.64498 30.1799 15.095H28.6666C28.2246 15.095 27.8006 15.2706 27.4881 15.5831C27.1755 15.8957 26.9999 16.3196 26.9999 16.7616V27C26.9999 28.8383 25.5049 30.3333 23.6666 30.3333H20.3333V28.6666H13.6666V33.6666H23.6666C27.3433 33.6666 30.3333 30.6766 30.3333 27C32.1716 27 33.6666 25.6116 33.6666 23.905V17C33.6666 7.80998 26.1899 0.333313 16.9999 0.333313Z" fill="url(#paint0_linear_801_1911)"></path><defs><linearGradient id="paint0_linear_801_1911" x1="16.9999" y1="0.333313" x2="16.9999" y2="33.6666" gradientUnits="userSpaceOnUse"><stop offset="0.9999" stop-color="#0E2D52"></stop><stop offset="1" stop-color="#C3DCFA" stop-opacity="0"></stop></linearGradient></defs></svg>