<svg width="47" height="47" viewBox="0 0 47 47" fill="none" xmlns="http://www.w3.org/2000/svg">
<path d="M23.575 0.143594C20.4966 0.137968 17.4474 0.740481 14.6024 1.91654C11.7575 3.0926 9.17282 4.81903 6.99692 6.99672C-2.1437 16.1373 -2.1437 31.0061 7.00005 40.1467C16.1407 49.2842 31.0094 49.2842 40.15 40.1467C49.2875 31.0061 49.2875 16.1373 40.15 6.99672C37.9754 4.81908 35.3919 3.09262 32.5479 1.91654C29.704 0.740458 26.6557 0.137936 23.5782 0.143594H23.575ZM23.575 3.24984C28.7688 3.24984 33.9626 5.23422 37.9375 9.20609C39.8267 11.0911 41.3256 13.3303 42.3482 15.7953C43.3709 18.2604 43.8972 20.903 43.8972 23.5717C43.8972 26.2405 43.3709 28.8831 42.3482 31.3481C41.3256 33.8132 39.8267 36.0523 37.9375 37.9373C36.0525 39.8265 33.8134 41.3253 31.3483 42.348C28.8833 43.3707 26.2407 43.897 23.5719 43.897C20.9032 43.897 18.2606 43.3707 15.7955 42.348C13.3305 41.3253 11.0913 39.8265 9.2063 37.9373C7.31712 36.0523 5.8183 33.8132 4.79565 31.3481C3.773 28.8831 3.2466 26.2405 3.2466 23.5717C3.2466 20.903 3.773 18.2604 4.79565 15.7953C5.8183 13.3303 7.31712 11.0911 9.2063 9.20609C11.0907 7.3155 13.3303 5.81601 15.7962 4.79383C18.2621 3.77165 20.9057 3.24693 23.575 3.24984ZM32.825 17.3186C32.5291 17.3464 32.2473 17.4581 32.0126 17.6405L20.5938 26.203L15.3032 20.9155C15.159 20.7662 14.9866 20.6472 14.796 20.5653C14.6054 20.4834 14.4003 20.4403 14.1929 20.4385C13.9854 20.4367 13.7796 20.4762 13.5876 20.5548C13.3956 20.6334 13.2211 20.7494 13.0744 20.8961C12.9277 21.0428 12.8117 21.2173 12.7331 21.4093C12.6546 21.6013 12.615 21.8071 12.6168 22.0145C12.6186 22.222 12.6618 22.427 12.7436 22.6177C12.8255 22.8083 12.9446 22.9807 13.0938 23.1248L19.3438 29.3748C19.6094 29.6406 19.9619 29.8017 20.3367 29.8287C20.7115 29.8557 21.0835 29.7467 21.3844 29.5217L33.8844 20.1467C34.1493 19.9537 34.3467 19.6822 34.4488 19.3708C34.5509 19.0593 34.5525 18.7236 34.4533 18.4112C34.3541 18.0988 34.1592 17.8256 33.8962 17.63C33.6331 17.4345 33.3153 17.3266 32.9875 17.3217C32.9345 17.319 32.8813 17.319 32.8282 17.3217L32.825 17.3186Z" fill="#34A853"/>
</svg>
