<svg width="15" height="15" viewBox="0 0 15 15" fill="none" xmlns="http://www.w3.org/2000/svg">
<path d="M11.9156 0.577148H2.84894C1.5645 0.577148 0.582275 1.55937 0.582275 2.84381V11.9105C0.582275 13.1949 1.5645 14.1771 2.84894 14.1771H11.9156C13.2001 14.1771 14.1823 13.1949 14.1823 11.9105V2.84381C14.1823 1.55937 13.2001 0.577148 11.9156 0.577148ZM7.38227 5.11048C8.66672 5.11048 9.64894 6.0927 9.64894 7.37715C9.64894 8.66159 8.66672 9.64381 7.38227 9.64381C6.09783 9.64381 5.11561 8.66159 5.11561 7.37715C5.11561 6.0927 6.09783 5.11048 7.38227 5.11048ZM10.2534 3.59937C10.2534 3.07048 10.7067 2.6927 11.1601 2.6927C11.6134 2.6927 12.0667 3.14604 12.0667 3.59937C12.0667 4.0527 11.6889 4.50604 11.1601 4.50604C10.6312 4.50604 10.2534 4.12826 10.2534 3.59937ZM11.9156 12.666H2.84894C2.39561 12.666 2.09339 12.3638 2.09339 11.9105V7.37715H3.6045C3.6045 9.4927 5.26672 11.1549 7.38227 11.1549C9.49783 11.1549 11.1601 9.4927 11.1601 7.37715H12.6712V11.9105C12.6712 12.3638 12.3689 12.666 11.9156 12.666Z" fill="#0E2D52"/>
</svg>
