<svg width="30" height="30" viewBox="0 0 30 30" fill="none" xmlns="http://www.w3.org/2000/svg">
<rect width="30" height="30" rx="5" fill="#E2EFFF"/>
<path fillRule="evenodd" clipRule="evenodd" d="M9.53247 11.4653C11.1158 11.4653 12.3982 10.2045 12.3982 8.64896C12.3982 7.09432 11.1158 5.8335 9.53247 5.8335C7.95007 5.8335 6.66675 7.09432 6.66675 8.64896C6.66675 10.2045 7.95007 11.4653 9.53247 11.4653ZM21.6342 7.41536C22.3268 7.41536 22.8898 7.96845 22.8898 8.64889C22.8898 9.33025 22.3268 9.88333 21.6342 9.88333H16.1546C15.4611 9.88333 14.8982 9.33025 14.8982 8.64889C14.8982 7.96845 15.4611 7.41536 16.1546 7.41536H21.6342ZM12.3982 15.1141C12.3982 16.6697 11.1158 17.9305 9.53251 17.9305C7.95011 17.9305 6.66679 16.6697 6.66679 15.1141C6.66679 13.5595 7.95011 12.2986 9.53251 12.2986C11.1158 12.2986 12.3982 13.5595 12.3982 15.1141ZM21.6343 13.8805C22.3269 13.8805 22.8898 14.4336 22.8898 15.114C22.8898 15.7954 22.3269 16.3485 21.6343 16.3485H16.1547C15.4612 16.3485 14.8982 15.7954 14.8982 15.114C14.8982 14.4336 15.4612 13.8805 16.1547 13.8805H21.6343ZM12.3982 21.5793C12.3982 23.1349 11.1158 24.3957 9.53247 24.3957C7.95007 24.3957 6.66675 23.1349 6.66675 21.5793C6.66675 20.0247 7.95007 18.7639 9.53247 18.7639C11.1158 18.7639 12.3982 20.0247 12.3982 21.5793ZM21.6344 20.3457C22.3269 20.3457 22.8899 20.8988 22.8899 21.5792C22.8899 22.2606 22.3269 22.8137 21.6344 22.8137H16.1548C15.4612 22.8137 14.8983 22.2606 14.8983 21.5792C14.8983 20.8988 15.4612 20.3457 16.1548 20.3457H21.6344Z" fill="#0E2D52"/>
</svg>
