<svg width="30" height="30" viewBox="0 0 30 30" fill="none" xmlns="http://www.w3.org/2000/svg">
<rect width="30" height="30" rx="5" fill="#E2EFFF"/>
<path fillRule="evenodd" clipRule="evenodd" d="M14.4145 5H10.7522C9.23522 5 8 6.20331 8 7.67971V11.2467C8 12.7326 9.23522 13.9254 10.7522 13.9254H14.4145C14.5369 13.9254 14.6573 13.9178 14.7753 13.9029C14.9041 13.9178 15.0355 13.9254 15.169 13.9254H19.1643C20.8191 13.9254 22.1666 12.7326 22.1666 11.2467V7.67971C22.1666 6.20331 20.8191 5 19.1643 5H15.169C15.0355 5 14.9041 5.00772 14.7753 5.02269C14.6573 5.00772 14.5369 5 14.4145 5ZM14.4146 15.4081H10.7523C9.23535 15.4081 8.00012 16.6114 8.00012 18.0878V21.6548C8.00012 23.1407 9.23535 24.3335 10.7523 24.3335H14.4146C14.537 24.3335 14.6574 24.3258 14.7755 24.311C14.9042 24.3258 15.0356 24.3335 15.1691 24.3335H19.1644C20.8192 24.3335 22.1667 23.1407 22.1667 21.6548V18.0878C22.1667 16.6114 20.8192 15.4081 19.1644 15.4081H15.1691C15.0356 15.4081 14.9042 15.4158 14.7755 15.4308C14.6574 15.4158 14.537 15.4081 14.4146 15.4081Z" fill="#0E2D52"/>
</svg>
