<svg width="40" height="40" viewBox="0 0 40 40" fill="none" xmlns="http://www.w3.org/2000/svg">
<circle cx="20" cy="20" r="19.5" stroke="#F2F2F2"/>
<path fill-rule="evenodd" clip-rule="evenodd" d="M25.9069 27.2H14.0943C13.4589 27.2 12.9891 26.5727 13.2294 25.9958C14.3418 23.3282 16.9554 21.8 20.0001 21.8C23.0458 21.8 25.6594 23.3282 26.7718 25.9958C27.0121 26.5727 26.5423 27.2 25.9069 27.2ZM16.3254 16.4C16.3254 14.4146 17.9742 12.8 20.0001 12.8C22.027 12.8 23.6749 14.4146 23.6749 16.4C23.6749 18.3854 22.027 20 20.0001 20C17.9742 20 16.3254 18.3854 16.3254 16.4ZM28.9606 26.8724C28.2928 23.8493 26.203 21.6182 23.4535 20.6057C24.9106 19.4564 25.7602 17.5978 25.4479 15.5629C25.0861 13.2022 23.0809 11.3132 20.6617 11.0378C17.3208 10.6571 14.4876 13.2041 14.4876 16.4C14.4876 18.101 15.2922 19.6166 16.5477 20.6057C13.7964 21.6182 11.7084 23.8493 11.0397 26.8724C10.7967 27.9713 11.7012 29 12.8487 29H27.1516C28.3 29 29.2036 27.9713 28.9606 26.8724Z" fill="#0E2D52"/>
</svg>
