<svg width="60" height="60" viewBox="0 0 60 60" fill="none" xmlns="http://www.w3.org/2000/svg">
<circle cx="30" cy="30" r="30" fill="#FF1FB3"/>
<path d="M25.5938 20.9062L22.5 24L21.2812 22.7812C20.9062 22.4062 20.3438 22.4062 19.9688 22.7812C19.5938 23.1562 19.5938 23.7187 19.9688 24.0937L21.8438 25.9688C22.0312 26.1562 22.2187 26.25 22.5 26.25C22.7812 26.25 22.9687 26.1562 23.1562 25.9688L26.9062 22.2187C27.2812 21.8437 27.2812 21.2812 26.9062 20.9062C26.5312 20.5313 25.9688 20.5313 25.5938 20.9062ZM25.5938 27.4688L22.5 30.5625L21.2812 29.3438C20.9062 28.9688 20.3438 28.9688 19.9688 29.3438C19.5938 29.7188 19.5938 30.2813 19.9688 30.6563L21.8438 32.5313C22.0312 32.7188 22.2187 32.8125 22.5 32.8125C22.7812 32.8125 22.9687 32.7188 23.1562 32.5313L26.9062 28.7812C27.2812 28.4062 27.2812 27.8438 26.9062 27.4688C26.5312 27.0938 25.9688 27.0938 25.5938 27.4688ZM25.5938 34.0312L22.5 37.125L21.2812 35.9062C20.9062 35.5312 20.3438 35.5312 19.9688 35.9062C19.5938 36.2812 19.5938 36.8438 19.9688 37.2188L21.8438 39.0938C22.0312 39.2812 22.2187 39.375 22.5 39.375C22.7812 39.375 22.9687 39.2812 23.1562 39.0938L26.9062 35.3438C27.2812 34.9688 27.2812 34.4062 26.9062 34.0312C26.5312 33.6562 25.9688 33.6562 25.5938 34.0312ZM30.9375 25.3125H38.4375C39 25.3125 39.375 24.9375 39.375 24.375C39.375 23.8125 39 23.4375 38.4375 23.4375H30.9375C30.375 23.4375 30 23.8125 30 24.375C30 24.9375 30.375 25.3125 30.9375 25.3125ZM38.4375 30H30.9375C30.375 30 30 30.375 30 30.9375C30 31.5 30.375 31.875 30.9375 31.875H38.4375C39 31.875 39.375 31.5 39.375 30.9375C39.375 30.375 39 30 38.4375 30ZM38.4375 36.5625H30.9375C30.375 36.5625 30 36.9375 30 37.5C30 38.0625 30.375 38.4375 30.9375 38.4375H38.4375C39 38.4375 39.375 38.0625 39.375 37.5C39.375 36.9375 39 36.5625 38.4375 36.5625Z" fill="white"/>
</svg>
