<svg width="60" height="60" viewBox="0 0 60 60" fill="none" xmlns="http://www.w3.org/2000/svg">
<circle cx="30" cy="30" r="30" fill="#F7954E"/>
<path d="M31.3674 30.4998C32.8171 30.4998 33.9924 31.675 33.9924 33.1248L33.991 34.4344C34.171 37.6483 31.6956 39.2511 27.1052 39.2511C22.5296 39.2511 20 37.6693 20 34.4802V33.1248C20 31.675 21.1752 30.4998 22.625 30.4998H31.3674ZM38.3683 30.4998C39.8181 30.4998 40.9933 31.675 40.9933 33.1248L40.992 34.0462C41.1502 36.9292 38.963 38.3747 34.965 38.3747C34.4223 38.3747 33.9121 38.3482 33.4356 38.2953C34.3749 37.428 34.8773 36.251 34.8756 34.7637L34.8646 34.3854L34.8674 33.1248C34.8674 32.079 34.4087 31.1404 33.6817 30.4991L38.3683 30.4998ZM26.9999 20C29.4165 20 31.3755 21.959 31.3755 24.3756C31.3755 26.7922 29.4165 28.7513 26.9999 28.7513C24.5833 28.7513 22.6242 26.7922 22.6242 24.3756C22.6242 21.959 24.5833 20 26.9999 20ZM35.7497 21.75C37.6827 21.75 39.2496 23.3169 39.2496 25.2499C39.2496 27.1829 37.6827 28.7498 35.7497 28.7498C33.8167 28.7498 32.2498 27.1829 32.2498 25.2499C32.2498 23.3169 33.8167 21.75 35.7497 21.75Z" fill="white"/>
</svg>
