<svg width="60" height="60" viewBox="0 0 60 60" fill="none" xmlns="http://www.w3.org/2000/svg">
<circle cx="30" cy="30" r="30" fill="#5C4EF7"/>
<g clip-path="url(#clip0_158_1593)">
<path d="M41.2995 38.118L36.027 32.8455C36.945 31.359 37.5 29.625 37.5 27.75C37.5 22.365 33.135 18 27.75 18C22.365 18 18 22.365 18 27.75C18 33.135 22.365 37.5 27.75 37.5C29.625 37.5 31.359 36.945 32.844 36.0285L38.118 41.301C38.5424 41.7114 39.1112 41.9386 39.7015 41.9335C40.2919 41.9285 40.8567 41.6917 41.2741 41.2741C41.6915 40.8565 41.928 40.2916 41.9328 39.7012C41.9375 39.1109 41.7101 38.5422 41.2995 38.118ZM27.75 34.5C24.0225 34.5 21 31.4775 21 27.75C21 24.0225 24.0225 21 27.75 21C31.4775 21 34.5 24.0225 34.5 27.75C34.5 31.4775 31.4775 34.5 27.75 34.5Z" fill="white"/>
</g>
<defs>
<clipPath id="clip0_158_1593">
<rect width="24" height="24" fill="white" transform="translate(18 18)"/>
</clipPath>
</defs>
</svg>
