<svg width="60" height="61" viewBox="0 0 60 61" fill="none" xmlns="http://www.w3.org/2000/svg">
<circle cx="30" cy="30.417" r="30" fill="#191046"/>
<g clip-path="url(#clip0_103_1699)">
<path d="M41.1 26.3297L39.525 18.886C39.5063 18.7922 39.45 18.736 39.3938 18.7172C39.3563 18.6797 39.2813 18.661 39.1688 18.6797C39.1313 18.6797 39.1125 18.6985 39.075 18.7172L32.5875 22.5985C32.4563 22.6735 32.4 22.861 32.4938 22.9922C32.5313 23.0485 32.5688 23.086 32.625 23.1047L34.4063 23.8735L34.05 24.7922C33.9375 25.111 31.2188 32.0297 20.3813 32.0297C19.9688 32.0297 19.5188 32.011 19.0875 31.9922H19.0313C18.9938 31.9922 18.975 32.011 18.9375 32.0297C18.9188 32.0485 18.9 32.086 18.9 32.1235C18.9 32.1797 18.9375 32.236 18.9938 32.2547L19.0313 32.2735C21.375 33.061 23.8125 33.4735 26.2875 33.511C35.2313 33.511 38.4375 26.8547 38.475 26.7797L38.9063 25.861L40.725 26.6485C40.8 26.686 40.8938 26.6672 40.9313 26.6485C40.9875 26.6297 41.0438 26.5922 41.0813 26.4985C41.1188 26.4422 41.1188 26.386 41.1 26.3297ZM20.175 42.1735H24.8438V35.4047C23.2688 35.2922 21.7125 35.0485 20.175 34.6547V42.1735ZM35.1563 33.0235V42.1735H39.825V28.3922H39.8063C39.1313 29.461 37.65 31.4297 35.1563 33.0235ZM27.6563 42.1735H32.325V34.4297C30.975 34.936 29.4375 35.2922 27.6563 35.4235V42.1735Z" fill="white"/>
</g>
<defs>
<clipPath id="clip0_103_1699">
<rect width="24" height="24" fill="white" transform="translate(18 18.417)"/>
</clipPath>
</defs>
</svg>
